<svg width="115" height="42" viewBox="0 0 115 42" fill="none" xmlns="http://www.w3.org/2000/svg">
<path d="M110.295 15.0587H109.882V12.1053H108.896V11.7322H111.281V12.1053H110.295V15.0587Z" fill="#283163"/>
<path d="M113.188 15.0587L112.171 12.1364H112.139C112.139 12.2297 112.171 12.354 112.171 12.5405C112.171 12.696 112.171 12.8825 112.171 13.0379V15.0587H111.789V11.7322H112.393L113.347 14.468H113.379L114.364 11.7322H115V15.0587H114.587V13.0069C114.587 12.8514 114.587 12.696 114.587 12.5405C114.587 12.3851 114.587 12.2607 114.619 12.1675H114.587L113.538 15.0898H113.188V15.0587Z" fill="#283163"/>
<path d="M54.3989 14.3294H56.3833L59.3052 22.681L62.2271 14.3294H64.2114L60.1021 25.7044H58.5083L54.3989 14.3294ZM53.3286 14.3294H55.3052L55.6646 22.47V25.7044H53.3286V14.3294ZM63.3052 14.3294H65.2896V25.7044H62.9458V22.47L63.3052 14.3294ZM66.8442 21.5638V21.3997C66.8442 20.7799 66.9328 20.2096 67.1099 19.6888C67.2869 19.1627 67.5448 18.707 67.8833 18.3216C68.2218 17.9362 68.6385 17.6367 69.1333 17.4232C69.6281 17.2044 70.1958 17.095 70.8364 17.095C71.4771 17.095 72.0474 17.2044 72.5474 17.4232C73.0474 17.6367 73.4666 17.9362 73.8052 18.3216C74.1489 18.707 74.4093 19.1627 74.5864 19.6888C74.7635 20.2096 74.8521 20.7799 74.8521 21.3997V21.5638C74.8521 22.1784 74.7635 22.7487 74.5864 23.2747C74.4093 23.7956 74.1489 24.2513 73.8052 24.6419C73.4666 25.0273 73.05 25.3268 72.5552 25.5403C72.0604 25.7539 71.4927 25.8607 70.8521 25.8607C70.2114 25.8607 69.6411 25.7539 69.1411 25.5403C68.6463 25.3268 68.2271 25.0273 67.8833 24.6419C67.5448 24.2513 67.2869 23.7956 67.1099 23.2747C66.9328 22.7487 66.8442 22.1784 66.8442 21.5638ZM69.0942 21.3997V21.5638C69.0942 21.9179 69.1255 22.2487 69.188 22.556C69.2505 22.8633 69.3494 23.1341 69.4849 23.3685C69.6255 23.5976 69.8078 23.7773 70.0317 23.9075C70.2557 24.0377 70.5291 24.1028 70.8521 24.1028C71.1646 24.1028 71.4328 24.0377 71.6567 23.9075C71.8807 23.7773 72.0604 23.5976 72.1958 23.3685C72.3312 23.1341 72.4302 22.8633 72.4927 22.556C72.5604 22.2487 72.5942 21.9179 72.5942 21.5638V21.3997C72.5942 21.056 72.5604 20.7331 72.4927 20.431C72.4302 20.1237 72.3286 19.8528 72.188 19.6185C72.0526 19.3789 71.8729 19.1914 71.6489 19.056C71.425 18.9206 71.1541 18.8528 70.8364 18.8528C70.5187 18.8528 70.2479 18.9206 70.0239 19.056C69.8052 19.1914 69.6255 19.3789 69.4849 19.6185C69.3494 19.8528 69.2505 20.1237 69.188 20.431C69.1255 20.7331 69.0942 21.056 69.0942 21.3997ZM80.8052 23.3685C80.8052 23.207 80.7583 23.0612 80.6646 22.931C80.5708 22.8008 80.3963 22.681 80.1411 22.5716C79.8911 22.457 79.5291 22.3528 79.0552 22.2591C78.6281 22.1653 78.2297 22.0482 77.8599 21.9075C77.4953 21.7617 77.1776 21.5872 76.9067 21.3841C76.6411 21.181 76.4328 20.9414 76.2817 20.6653C76.1307 20.3841 76.0552 20.0638 76.0552 19.7044C76.0552 19.3502 76.1307 19.0169 76.2817 18.7044C76.438 18.3919 76.6593 18.1159 76.9458 17.8763C77.2375 17.6315 77.5916 17.4414 78.0083 17.306C78.4302 17.1653 78.9041 17.095 79.4302 17.095C80.1646 17.095 80.7948 17.2122 81.3208 17.4466C81.8521 17.681 82.2583 18.0039 82.5396 18.4153C82.826 18.8216 82.9692 19.2851 82.9692 19.806H80.7192C80.7192 19.5872 80.6724 19.3919 80.5786 19.22C80.4901 19.0429 80.3494 18.9049 80.1567 18.806C79.9692 18.7018 79.7244 18.6497 79.4224 18.6497C79.1724 18.6497 78.9562 18.694 78.7739 18.7825C78.5916 18.8659 78.451 18.9804 78.3521 19.1263C78.2583 19.2669 78.2114 19.4232 78.2114 19.595C78.2114 19.7252 78.2375 19.8424 78.2896 19.9466C78.3468 20.0456 78.438 20.1367 78.563 20.22C78.688 20.3034 78.8494 20.3815 79.0474 20.4544C79.2505 20.5221 79.5005 20.5846 79.7974 20.6419C80.4067 20.7669 80.951 20.931 81.4302 21.1341C81.9093 21.332 82.2896 21.6028 82.5708 21.9466C82.8521 22.2851 82.9927 22.7304 82.9927 23.2825C82.9927 23.6575 82.9093 24.0013 82.7427 24.3138C82.576 24.6263 82.3364 24.8997 82.0239 25.1341C81.7114 25.3633 81.3364 25.5429 80.8989 25.6732C80.4666 25.7982 79.9797 25.8607 79.438 25.8607C78.6515 25.8607 77.9849 25.72 77.438 25.4388C76.8963 25.1575 76.4849 24.8008 76.2036 24.3685C75.9276 23.931 75.7896 23.4831 75.7896 23.0247H77.9224C77.9328 23.332 78.0109 23.5794 78.1567 23.7669C78.3078 23.9544 78.4979 24.0898 78.7271 24.1732C78.9614 24.2565 79.214 24.2982 79.4849 24.2982C79.7765 24.2982 80.0187 24.2591 80.2114 24.181C80.4041 24.0976 80.55 23.9883 80.6489 23.8528C80.7531 23.7122 80.8052 23.5508 80.8052 23.3685ZM85.7349 13.7044V25.7044H84.8052V13.7044H85.7349ZM91.0396 17.2513L87.0864 21.1732L85.4067 22.7982L85.2661 21.8841L86.6177 20.4232L89.8599 17.2513H91.0396ZM90.2271 25.7044L86.6958 21.3138L87.2114 20.5091L91.3521 25.7044H90.2271ZM92.1333 21.6107V21.3528C92.1333 20.7383 92.2218 20.1706 92.3989 19.6497C92.576 19.1289 92.8286 18.6784 93.1567 18.2982C93.4901 17.9179 93.8885 17.6237 94.3521 17.4153C94.8156 17.2018 95.3312 17.095 95.8989 17.095C96.4718 17.095 96.9901 17.2018 97.4536 17.4153C97.9172 17.6237 98.3156 17.9179 98.6489 18.2982C98.9823 18.6784 99.2375 19.1289 99.4146 19.6497C99.5916 20.1706 99.6802 20.7383 99.6802 21.3528V21.6107C99.6802 22.2252 99.5916 22.7929 99.4146 23.3138C99.2375 23.8294 98.9823 24.2773 98.6489 24.6575C98.3208 25.0377 97.925 25.3346 97.4614 25.5482C96.9979 25.7565 96.4823 25.8607 95.9146 25.8607C95.3416 25.8607 94.8234 25.7565 94.3599 25.5482C93.8963 25.3346 93.4979 25.0377 93.1646 24.6575C92.8312 24.2773 92.576 23.8294 92.3989 23.3138C92.2218 22.7929 92.1333 22.2252 92.1333 21.6107ZM93.063 21.3528V21.6107C93.063 22.0742 93.1255 22.5143 93.2505 22.931C93.3755 23.3424 93.5578 23.7096 93.7974 24.0325C94.0369 24.3502 94.3338 24.6002 94.688 24.7825C95.0422 24.9648 95.451 25.056 95.9146 25.056C96.3729 25.056 96.7765 24.9648 97.1255 24.7825C97.4797 24.6002 97.7765 24.3502 98.0161 24.0325C98.2557 23.7096 98.4354 23.3424 98.5552 22.931C98.6802 22.5143 98.7427 22.0742 98.7427 21.6107V21.3528C98.7427 20.8945 98.6802 20.4596 98.5552 20.0482C98.4354 19.6367 98.2531 19.2695 98.0083 18.9466C97.7687 18.6237 97.4718 18.3685 97.1177 18.181C96.7635 17.9935 96.3573 17.8997 95.8989 17.8997C95.4406 17.8997 95.0343 17.9935 94.6802 18.181C94.3312 18.3685 94.0343 18.6237 93.7896 18.9466C93.55 19.2695 93.3677 19.6367 93.2427 20.0482C93.1229 20.4596 93.063 20.8945 93.063 21.3528ZM104.813 17.2513V18.0169H100.579V17.2513H104.813ZM102.133 15.0794H103.063V23.6497C103.063 24.0403 103.115 24.3346 103.219 24.5325C103.323 24.7304 103.459 24.8633 103.625 24.931C103.792 24.9987 103.972 25.0325 104.165 25.0325C104.305 25.0325 104.441 25.0247 104.571 25.0091C104.701 24.9883 104.818 24.9674 104.922 24.9466L104.961 25.7357C104.847 25.7721 104.698 25.8008 104.516 25.8216C104.334 25.8476 104.152 25.8607 103.969 25.8607C103.61 25.8607 103.292 25.7956 103.016 25.6653C102.74 25.5299 102.524 25.3008 102.368 24.9778C102.211 24.6497 102.133 24.2044 102.133 23.6419V15.0794Z" fill="#283163"/>
<rect x="0.5" y="0.5" width="40.6368" height="40.5962" rx="2.5" stroke="#283163"/>
<path d="M25.3265 26.7844C25.3532 26.8644 25.3799 26.9377 25.4065 27.0044C25.4332 27.0711 25.4532 27.1444 25.4665 27.2244C25.4932 27.3044 25.5065 27.3777 25.5065 27.4444C25.5065 27.5377 25.4732 27.6111 25.4065 27.6644C25.3399 27.7311 25.2599 27.7844 25.1665 27.8244C25.0865 27.8644 25.0065 27.8911 24.9265 27.9044C24.8465 27.9177 24.7999 27.9244 24.7865 27.9244C24.7065 27.9244 24.5599 27.6777 24.3465 27.1844C24.1332 26.7044 23.8999 26.0244 23.6465 25.1444C23.4065 24.2644 23.1599 23.2177 22.9065 22.0044C22.6532 20.7911 22.4465 19.4577 22.2865 18.0044C22.2599 18.3111 22.2065 18.6711 22.1265 19.0844C22.0599 19.4844 21.9532 19.8644 21.8065 20.2244C21.6599 20.5844 21.4665 20.8911 21.2265 21.1444C20.9999 21.3844 20.7065 21.5044 20.3465 21.5044C20.0932 21.5044 19.8065 21.3711 19.4865 21.1044C19.1665 20.8377 18.8532 20.5244 18.5465 20.1644C18.2532 19.7911 17.9799 19.4177 17.7265 19.0444C17.4865 18.6577 17.3065 18.3444 17.1865 18.1044C17.2399 18.6911 17.3265 19.3977 17.4465 20.2244C17.5799 21.0511 17.7799 21.9244 18.0465 22.8444C18.0732 22.9377 18.0999 23.0111 18.1265 23.0644C18.1665 23.1044 18.1999 23.1511 18.2265 23.2044C18.2665 23.2577 18.2932 23.3177 18.3065 23.3844C18.3332 23.4377 18.3465 23.5244 18.3465 23.6444C18.3465 23.8177 18.2799 23.9444 18.1465 24.0244C18.0132 24.1044 17.8865 24.1444 17.7665 24.1444C17.6999 24.1444 17.6132 24.0444 17.5065 23.8444C17.3999 23.6311 17.2865 23.3577 17.1665 23.0244C17.0465 22.6911 16.9265 22.3244 16.8065 21.9244C16.6865 21.5111 16.5732 21.1044 16.4665 20.7044C16.3732 20.3044 16.2932 19.9311 16.2265 19.5844C16.1599 19.2244 16.1265 18.9377 16.1265 18.7244C16.1265 18.3777 16.1399 18.1377 16.1665 18.0044C16.2065 17.8711 16.2599 17.7711 16.3265 17.7044V16.4844C16.3265 16.2977 16.3732 16.1577 16.4665 16.0644C16.5732 15.9577 16.7065 15.9044 16.8665 15.9044C16.9999 15.9044 17.1532 16.0177 17.3265 16.2444C17.4999 16.4711 17.6865 16.7577 17.8865 17.1044C18.0999 17.4511 18.3199 17.8244 18.5465 18.2244C18.7732 18.6244 18.9932 18.9977 19.2065 19.3444C19.4332 19.6911 19.6465 19.9777 19.8465 20.2044C20.0599 20.4311 20.2599 20.5444 20.4465 20.5444C20.6199 20.5444 20.7865 20.3844 20.9465 20.0644C21.1065 19.7311 21.2532 19.2977 21.3865 18.7644C21.5332 18.2311 21.6599 17.6244 21.7665 16.9444C21.8732 16.2644 21.9599 15.5711 22.0265 14.8644C22.0265 14.7844 22.0199 14.6977 22.0065 14.6044C21.9932 14.4977 21.9865 14.3844 21.9865 14.2644C21.9865 14.1044 22.0199 13.9311 22.0865 13.7444C22.1665 13.5577 22.3132 13.4644 22.5265 13.4644C22.6465 13.4644 22.7399 13.4977 22.8065 13.5644C22.8865 13.6311 22.9399 13.7177 22.9665 13.8244C22.9932 13.9177 23.0065 14.0177 23.0065 14.1244C23.0199 14.2177 23.0265 14.2977 23.0265 14.3644C23.0265 14.4711 23.0132 14.6511 22.9865 14.9044C22.9732 15.1444 22.9665 15.5177 22.9665 16.0244C22.9665 16.4644 22.9999 16.9777 23.0665 17.5644C23.1332 18.1377 23.2199 18.7511 23.3265 19.4044C23.4465 20.0444 23.5799 20.7111 23.7265 21.4044C23.8865 22.0844 24.0532 22.7511 24.2265 23.4044C24.4132 24.0577 24.5932 24.6777 24.7665 25.2644C24.9532 25.8377 25.1399 26.3444 25.3265 26.7844Z" fill="#283163"/>
</svg>
