<svg width="40" height="40" viewBox="0 0 40 40" fill="none" xmlns="http://www.w3.org/2000/svg">
<path d="M37.9452 19.9795C37.9452 30.9384 29.4778 39.81 19.0476 39.81C8.61743 39.81 0.15 30.9384 0.15 19.9795C0.15 9.0206 8.61743 0.149023 19.0476 0.149023C29.4778 0.149023 37.9452 9.0206 37.9452 19.9795Z" stroke="#283163" stroke-width="0.3"/>
<path d="M24.1544 19.5693C24.621 24.0975 26.4561 25.4665 26.4561 25.4665H12C12 25.4665 14.4093 23.6695 14.4093 17.379C14.4093 15.9493 14.9169 14.5778 15.8204 13.5669C16.7247 12.556 17.9511 11.9873 19.228 11.9873C19.4987 11.9873 19.7677 12.0126 20.0312 12.0631" stroke="#283163" stroke-linecap="round" stroke-linejoin="round"/>
<path d="M20.6167 27.998C20.4756 28.2538 20.273 28.4662 20.0292 28.6138C19.7853 28.7615 19.5088 28.8392 19.2273 28.8392C18.9458 28.8392 18.6693 28.7615 18.4254 28.6138C18.1815 28.4662 17.9789 28.2538 17.8379 27.998" stroke="#283163" stroke-linecap="round" stroke-linejoin="round"/>
<ellipse cx="30.0477" cy="11.9873" rx="9.52381" ry="9.99024" fill="#679AFA"/>
<path d="M29.5049 10.9961H30.4072C30.6963 10.9961 30.9346 10.9473 31.1221 10.8496C31.3096 10.748 31.4482 10.6074 31.5381 10.4277C31.6318 10.2441 31.6787 10.0312 31.6787 9.78906C31.6787 9.57031 31.6357 9.37695 31.5498 9.20898C31.4678 9.03711 31.3408 8.9043 31.1689 8.81055C30.9971 8.71289 30.7803 8.66406 30.5186 8.66406C30.3115 8.66406 30.1201 8.70508 29.9443 8.78711C29.7686 8.86914 29.6279 8.98438 29.5225 9.13281C29.417 9.28125 29.3643 9.46094 29.3643 9.67188H27.6709C27.6709 9.20312 27.7959 8.79492 28.0459 8.44727C28.2998 8.09961 28.6396 7.82812 29.0654 7.63281C29.4912 7.4375 29.96 7.33984 30.4717 7.33984C31.0498 7.33984 31.5557 7.43359 31.9893 7.62109C32.4229 7.80469 32.7607 8.07617 33.0029 8.43555C33.2451 8.79492 33.3662 9.24023 33.3662 9.77148C33.3662 10.041 33.3037 10.3027 33.1787 10.5566C33.0537 10.8066 32.874 11.0332 32.6396 11.2363C32.4092 11.4355 32.1279 11.5957 31.7959 11.7168C31.4639 11.834 31.0908 11.8926 30.6768 11.8926H29.5049V10.9961ZM29.5049 12.2793V11.4062H30.6768C31.1416 11.4062 31.5498 11.459 31.9014 11.5645C32.2529 11.6699 32.5479 11.8223 32.7861 12.0215C33.0244 12.2168 33.2041 12.4492 33.3252 12.7188C33.4463 12.9844 33.5068 13.2793 33.5068 13.6035C33.5068 14.002 33.4307 14.3574 33.2783 14.6699C33.126 14.9785 32.9111 15.2402 32.6338 15.4551C32.3604 15.6699 32.04 15.834 31.6729 15.9473C31.3057 16.0566 30.9053 16.1113 30.4717 16.1113C30.1123 16.1113 29.7588 16.0625 29.4111 15.9648C29.0674 15.8633 28.7549 15.7129 28.4736 15.5137C28.1963 15.3105 27.9736 15.0566 27.8057 14.752C27.6416 14.4434 27.5596 14.0781 27.5596 13.6562H29.2529C29.2529 13.875 29.3076 14.0703 29.417 14.2422C29.5264 14.4141 29.6768 14.5488 29.8682 14.6465C30.0635 14.7441 30.2803 14.793 30.5186 14.793C30.7881 14.793 31.0186 14.7441 31.21 14.6465C31.4053 14.5449 31.5537 14.4043 31.6553 14.2246C31.7607 14.041 31.8135 13.8281 31.8135 13.5859C31.8135 13.2734 31.7568 13.0234 31.6436 12.8359C31.5303 12.6445 31.3682 12.5039 31.1572 12.4141C30.9463 12.3242 30.6963 12.2793 30.4072 12.2793H29.5049Z" fill="white"/>
</svg>
